# xmcd
#
# Track frame offsets: 
#        150
#        13795
#        27355
#        39311
#        53614
#        67713
#        79113
#        93042
#        105644
#        117553
#        131426
#        144035
#        158228
#        173052
#        187277
#        201391
#        215051
#        228921
#        242710
#        254553
#        267399
#        279457
#
# Disc length: 3899 seconds
#
# Revision: 0
# Processed by: cddbd v1.5.2PL0 Copyright (c) Steve Scherf et al.
# Submitted via: ExactAudioCopyFreeDBPlugin 1.0
#
DISCID=340f3916
DTITLE=Billie Holiday - The Complete Masters CD3
DYEAR=1900
DGENRE=
TTITLE0=The Mood That I'm In
TTITLE1=Your Showed me the Way
TTITLE2=Sentimental and Melancholy
TTITLE3=My Last Affair
TTITLE4=Carelessly
TTITLE5=How Could You?
TTITLE6=Moanin' Low
TTITLE7=Where is the Sun?
TTITLE8=Let's Call the Whole Thing Off
TTITLE9=They Can't Take That Away From Me
TTITLE10=Don't Know If I'm Comin' Or Goin'
TTITLE11=Sun Showers
TTITLE12=Yours and Mine
TTITLE13=I'll Get By
TTITLE14=Mean to Me
TTITLE15=Foolin' Myself
TTITLE16=Easy Living
TTITLE17=I'll Never Be the Same
TTITLE18=Me, Myself and I
TTITLE19=A Sailboat in the Moonlight
TTITLE20=Born to Love
TTITLE21=Without Your Love
EXTD=
EXTT0=
EXTT1=
EXTT2=
EXTT3=
EXTT4=
EXTT5=
EXTT6=
EXTT7=
EXTT8=
EXTT9=
EXTT10=
EXTT11=
EXTT12=
EXTT13=
EXTT14=
EXTT15=
EXTT16=
EXTT17=
EXTT18=
EXTT19=
EXTT20=
EXTT21=
PLAYORDER=
